<svg width="21" height="20" viewBox="0 0 21 20" fill="none" xmlns="http://www.w3.org/2000/svg">
<path fill-rule="evenodd" clip-rule="evenodd" d="M9.74656e-08 0.952381C9.74656e-08 0.426395 0.420143 0 0.938414 0H19.7067C20.225 0 20.6451 0.426395 20.6451 0.952381V18.6533C20.6451 18.7208 20.6382 18.7868 20.625 18.8503C20.6382 18.914 20.6452 18.98 20.6452 19.0476C20.6452 19.5736 20.225 20 19.7067 20H5.1686C4.65033 20 4.23018 19.5736 4.23018 19.0476C4.23018 18.5216 4.65033 18.0952 5.1686 18.0952H18.7683V7.61905H1.87683V12.939C1.87683 13.465 1.45669 13.8914 0.938414 13.8914C0.420143 13.8914 9.74656e-08 13.465 9.74656e-08 12.939V0.952381ZM1.87683 5.71429V1.90476H18.7683V5.71429H1.87683ZM2.81524 3.8079C2.81524 3.28192 3.23539 2.85552 3.75366 2.85552H4.22286C4.74114 2.85552 5.16128 3.28192 5.16128 3.8079C5.16128 4.33389 4.74114 4.76029 4.22286 4.76029H3.75366C3.23539 4.76029 2.81524 4.33389 2.81524 3.8079ZM6.09969 3.80952C6.09969 3.28354 6.51983 2.85714 7.03811 2.85714H16.8915C17.4097 2.85714 17.8299 3.28354 17.8299 3.80952C17.8299 4.33551 17.4097 4.7619 16.8915 4.7619H7.03811C6.51983 4.7619 6.09969 4.33551 6.09969 3.80952ZM12.8493 10.7546C13.2126 10.3865 13.7998 10.383 14.1674 10.7466L16.2697 12.8266C16.6408 13.1938 16.6483 13.7968 16.2865 14.1734C15.9248 14.55 15.3306 14.5577 14.9595 14.1905L13.5202 12.7664L10.4014 15.9264C10.0404 16.2922 9.45767 16.2983 9.08929 15.9403L6.66889 13.5878L1.60536 18.7796C1.24076 19.1534 0.646601 19.1565 0.278258 18.7864C-0.0900852 18.4164 -0.0931245 17.8134 0.27147 17.4396L5.98435 11.5821C6.34469 11.2126 6.9304 11.2046 7.30035 11.5642L9.7247 13.9205L12.8493 10.7546Z" fill="black"/>
</svg>
