<svg width="25" height="20" viewBox="0 0 25 20" fill="none" xmlns="http://www.w3.org/2000/svg">
<path fill-rule="evenodd" clip-rule="evenodd" d="M0 2.22222C0 0.994923 0.994923 0 2.22222 0H22.2222C23.4496 0 24.4444 0.994933 24.4444 2.22222V17.7778C24.4444 19.0051 23.4495 20 22.2222 20H2.22222C0.994933 20 0 19.0051 0 17.7778V2.22222ZM2.22222 6.66667V17.7778H22.2222V6.66667H2.22222ZM22.2222 4.44444H2.22222V2.22222H22.2222V4.44444ZM12.7778 14.4444C12.7778 13.8308 13.2752 13.3333 13.8889 13.3333H18.8889C19.5025 13.3333 20 13.8308 20 14.4444C20 15.0581 19.5025 15.5556 18.8889 15.5556H13.8889C13.2752 15.5556 12.7778 15.0581 12.7778 14.4444Z" fill="black"/>
</svg>
