<svg width="18" height="20" viewBox="0 0 18 20" fill="none" xmlns="http://www.w3.org/2000/svg">
<path fill-rule="evenodd" clip-rule="evenodd" d="M7.33269 0.471873C8.25319 -0.157292 9.42231 -0.15729 10.3428 0.471874L17.2843 5.2164C17.5357 5.38826 17.6845 5.69295 17.6749 6.01647C17.6735 6.06577 17.6684 6.11438 17.6598 6.16191C17.67 6.21871 17.6754 6.27741 17.6754 6.33747V14.3241C17.6806 14.6427 17.532 14.955 17.2617 15.127L10.2661 19.5787C9.38345 20.1404 8.29204 20.1404 7.40942 19.5787L0.413777 15.127C0.14351 14.955 -0.00513915 14.6427 0.000135739 14.3241V6.33747C0.000135739 6.27741 0.0054713 6.21871 0.0156535 6.16191C0.00712839 6.11438 0.00202676 6.06577 0.000569075 6.01647C-0.00899582 5.69295 0.139771 5.38826 0.391208 5.2164L7.33269 0.471873ZM9.67149 11.2457L16.0079 7.51213V13.8189L9.67149 17.8512V11.2457ZM8.00402 11.2457L1.66761 7.51213V13.8189L8.00402 17.8512V11.2457ZM9.45748 2.01336C9.07845 1.7543 8.59705 1.7543 8.21802 2.01336L2.4894 5.9289L8.83775 9.66949L15.1861 5.9289L9.45748 2.01336Z" fill="black"/>
</svg>
