<svg width="23" height="20" viewBox="0 0 23 20" fill="none" xmlns="http://www.w3.org/2000/svg">
<path fill-rule="evenodd" clip-rule="evenodd" d="M0 1C0 0.447715 0.447715 0 1 0H2.75C3.20887 0 3.60885 0.312297 3.72014 0.757464L4.28078 3H21.5C21.8079 3 22.0987 3.14187 22.2882 3.38459C22.4777 3.6273 22.5448 3.94379 22.4701 4.24254L19.9701 14.2425C19.8589 14.6877 19.4589 15 19 15H6C5.54113 15 5.14115 14.6877 5.02986 14.2425L1.96922 2H1C0.447715 2 0 1.55228 0 1ZM6 15C4.61929 15 3.5 16.1193 3.5 17.5C3.5 18.8807 4.61929 20 6 20C7.38071 20 8.5 18.8807 8.5 17.5C8.5 16.1193 7.38071 15 6 15ZM19 15C17.6193 15 16.5 16.1193 16.5 17.5C16.5 18.8807 17.6193 20 19 20C20.3807 20 21.5 18.8807 21.5 17.5C21.5 16.1193 20.3807 15 19 15ZM4.78078 5L6.78078 13H18.2192L20.2192 5H4.78078ZM9.5 9C9.5 8.44772 9.94771 8 10.5 8H14.5C15.0523 8 15.5 8.44772 15.5 9C15.5 9.55229 15.0523 10 14.5 10H10.5C9.94771 10 9.5 9.55229 9.5 9ZM6 17C5.72386 17 5.5 17.2239 5.5 17.5C5.5 17.7761 5.72386 18 6 18C6.27614 18 6.5 17.7761 6.5 17.5C6.5 17.2239 6.27614 17 6 17ZM19 17C18.7239 17 18.5 17.2239 18.5 17.5C18.5 17.7761 18.7239 18 19 18C19.2761 18 19.5 17.7761 19.5 17.5C19.5 17.2239 19.2761 17 19 17Z" fill="black"/>
</svg>
