<svg width="26" height="20" viewBox="0 0 26 20" fill="none" xmlns="http://www.w3.org/2000/svg">
<path fill-rule="evenodd" clip-rule="evenodd" d="M0.0590021 0.807829C0.105972 0.665387 0.179415 0.534978 0.273508 0.422426C0.380412 0.294192 0.509579 0.194125 0.65109 0.123642C0.791474 0.053448 0.947857 0.0105036 1.11331 0.00174183C1.13898 0.000346585 1.16471 -0.000212183 1.19046 7.18012e-05H24.6919C24.7178 -0.000212987 24.7436 0.000349754 24.7693 0.0017537C25.0868 0.0190683 25.3953 0.164328 25.6116 0.425668C25.7021 0.534763 25.7733 0.660478 25.82 0.797563C25.8633 0.924792 25.8838 1.05709 25.8823 1.18861V10C25.8823 10.6498 25.3556 11.1765 24.7059 11.1765C24.0561 11.1765 23.5294 10.6498 23.5294 10V3.52947L13.6471 10.9412C13.2288 11.2549 12.6536 11.2549 12.2353 10.9412L2.353 3.52947V17.6471H12.9412C13.5909 17.6471 14.1177 18.1738 14.1177 18.8235C14.1177 19.4733 13.5909 20 12.9412 20H1.17653C0.526789 20 6.73172e-05 19.4733 6.73172e-05 18.8235V1.18824C-0.00129779 1.06038 0.0180907 0.931782 0.0590021 0.807829ZM4.70594 2.353L12.9412 8.52945L21.1765 2.353H4.70594Z" fill="black"/>
<path d="M20.2437 13.7731L19.3108 14.7059H24.7059C25.3556 14.7059 25.8823 15.2326 25.8823 15.8824C25.8823 16.5321 25.3556 17.0588 24.7059 17.0588H19.3108L20.2437 17.9916C20.7031 18.4511 20.7031 19.196 20.2437 19.6554C19.7842 20.1149 19.0393 20.1149 18.5799 19.6554L15.6387 16.7143C15.5259 16.6015 15.4408 16.4715 15.3834 16.3327C15.3263 16.195 15.2946 16.0441 15.2941 15.8859L15.2941 15.8824L15.2941 15.8788C15.2951 15.5593 15.4234 15.2697 15.6311 15.0582L15.6396 15.0496L18.5799 12.1093C19.0393 11.6499 19.7842 11.6499 20.2437 12.1093C20.7031 12.5688 20.7031 13.3137 20.2437 13.7731Z" fill="black"/>
</svg>
