<svg width="33" height="33" viewBox="0 0 33 33" fill="none" xmlns="http://www.w3.org/2000/svg">
<path fill-rule="evenodd" clip-rule="evenodd" d="M11.323 7.79067e-05C11.3976 0.000118229 11.4732 0.000159141 11.55 0.000159141L23.4981 0.000158354C24.8263 0.000137308 25.9225 0.000120001 26.8155 0.0730779C27.743 0.148854 28.5955 0.311483 29.3963 0.719509C30.6382 1.35227 31.6479 2.36193 32.2806 3.60379C32.6887 4.40458 32.8513 5.25713 32.9271 6.18459C33 7.07754 33 8.17371 33 9.50188V23.4981C33 24.8263 33 25.9225 32.9271 26.8154C32.8513 27.7429 32.6887 28.5954 32.2806 29.3962C31.6479 30.6381 30.6382 31.6477 29.3963 32.2805C28.5955 32.6885 27.743 32.8511 26.8155 32.9269C25.9225 32.9999 24.8264 32.9999 23.4982 32.9998H11.55C11.4732 32.9998 11.3976 32.9999 11.323 32.9999C10.0106 33.0006 9.03602 33.0012 8.1918 32.775C5.91419 32.1647 4.13517 30.3857 3.52489 28.1081C3.29868 27.2639 3.29921 26.2893 3.29992 24.9769C3.29996 24.9024 3.3 24.8267 3.3 24.7499C3.3 23.8387 4.03873 23.0999 4.95 23.0999C5.86127 23.0999 6.6 23.8387 6.6 24.7499C6.6 26.3906 6.61417 26.8872 6.71244 27.254C7.01758 28.3928 7.90709 29.2823 9.0459 29.5874C9.41266 29.6857 9.90932 29.6999 11.55 29.6999H23.43C24.8434 29.6999 25.8041 29.6986 26.5468 29.6379C27.2702 29.5788 27.6401 29.4717 27.8982 29.3402C28.5191 29.0238 29.0239 28.519 29.3403 27.8981C29.4718 27.64 29.5789 27.2701 29.638 26.5467C29.6987 25.8041 29.7 24.8433 29.7 23.4299V9.57007C29.7 8.15672 29.6987 7.19595 29.638 6.45331C29.5789 5.72993 29.4718 5.36 29.3403 5.10194C29.0239 4.48101 28.5191 3.97618 27.8982 3.6598C27.6401 3.52832 27.2702 3.42119 26.5468 3.36209C25.8041 3.30141 24.8434 3.30013 23.43 3.30013H11.55C9.90932 3.30013 9.41265 3.3143 9.0459 3.41257C7.90709 3.71771 7.01758 4.60721 6.71244 5.746C6.61417 6.11276 6.6 6.60941 6.6 8.25008C6.6 9.16134 5.86127 9.90006 4.95 9.90006C4.03873 9.90006 3.3 9.16134 3.3 8.25008C3.3 8.1733 3.29996 8.09764 3.29992 8.02307C3.29921 6.7107 3.29868 5.73612 3.52489 4.89191C4.13517 2.61432 5.91419 0.835324 8.19179 0.225047C9.03602 -0.00116047 10.0106 -0.000632747 11.323 7.79067e-05ZM15.3333 8.73335C15.9776 8.08899 17.0224 8.08899 17.6667 8.73335L24.2667 15.3333C24.9111 15.9776 24.9111 17.0224 24.2667 17.6667L17.6667 24.2666C17.0224 24.911 15.9776 24.911 15.3333 24.2666C14.6889 23.6223 14.6889 22.5776 15.3333 21.9332L19.1165 18.15H1.65C0.73873 18.15 0 17.4113 0 16.5C0 15.5887 0.73873 14.85 1.65 14.85H19.1165L15.3333 11.0668C14.6889 10.4224 14.6889 9.37771 15.3333 8.73335Z" fill="#454545"/>
</svg>
