<svg width="22" height="20" viewBox="0 0 22 20" fill="none" xmlns="http://www.w3.org/2000/svg">
<path d="M11 12C11.5523 12 12 12.4477 12 13V16C12 16.5523 11.5523 17 11 17C10.4478 17 10 16.5523 10 16V13C10 12.4477 10.4478 12 11 12Z" fill="black"/>
<path d="M15.5 11C15.5 10.4477 15.0523 10 14.5 10C13.9478 10 13.5 10.4477 13.5 11V16C13.5 16.5523 13.9478 17 14.5 17C15.0523 17 15.5 16.5523 15.5 16V11Z" fill="black"/>
<path d="M7.50004 13C8.05232 13 8.50004 13.4477 8.50004 14V16C8.50004 16.5523 8.05232 17 7.50004 17C6.94775 17 6.50004 16.5523 6.50004 16V14C6.50004 13.4477 6.94775 13 7.50004 13Z" fill="black"/>
<path d="M15.1402 8.26825C15.5645 7.91468 15.6218 7.28412 15.2683 6.85984C14.9147 6.43556 14.2841 6.37824 13.8599 6.7318L11.5614 8.64718L10.7071 7.79292C10.3468 7.43261 9.77323 7.40084 9.37534 7.71916L6.87534 9.71916C6.44408 10.0642 6.37416 10.6935 6.71917 11.1247C7.06418 11.556 7.69347 11.6259 8.12473 11.2809L9.92582 9.84002L10.7929 10.7071C11.1586 11.0728 11.7429 11.0994 12.1402 10.7682L15.1402 8.26825Z" fill="black"/>
<path fill-rule="evenodd" clip-rule="evenodd" d="M10.3753 0.219131C10.7406 -0.0730437 11.2595 -0.0730437 11.6247 0.219131L21.6247 8.21913C22.056 8.56414 22.1259 9.19343 21.7809 9.62469C21.4359 10.056 20.8066 10.1259 20.3753 9.78087L19.5 9.08062V19C19.5 19.5523 19.0523 20 18.5 20H3.50004C2.94775 20 2.50004 19.5523 2.50004 19V9.08062L1.62473 9.78087C1.19347 10.1259 0.564178 10.056 0.219168 9.62469C-0.125842 9.19343 -0.0559201 8.56414 0.375342 8.21913L10.3753 0.219131ZM4.50004 7.48062L11 2.28062L17.5 7.48062V18H4.50004V7.48062Z" fill="black"/>
</svg>
