<svg width="18" height="20" viewBox="0 0 18 20" fill="none" xmlns="http://www.w3.org/2000/svg">
<path d="M10.3288 12.7637H0V9.375H10.2152C10.9852 9.375 11.6163 9.25781 12.1086 9.02344C12.6009 8.78906 12.9638 8.45703 13.1973 8.02734C13.4309 7.59766 13.5476 7.08984 13.5476 6.50391C13.5476 5.93099 13.4309 5.41341 13.1973 4.95117C12.9638 4.48893 12.6072 4.12109 12.1276 3.84766C11.6479 3.57422 11.0483 3.4375 10.3288 3.4375H6.82589V20H2.75497V0H10.3288C11.8625 0 13.1753 0.283203 14.2671 0.849609C15.3653 1.40951 16.2048 2.17773 16.7854 3.1543C17.3661 4.12435 17.6533 5.22461 17.647 6.45508C17.6533 7.74414 17.3598 8.86068 16.7665 9.80469C16.1732 10.7487 15.3275 11.4779 14.2293 11.9922C13.1311 12.5065 11.8309 12.7637 10.3288 12.7637ZM11.0577 14.0527V17.4414H0V14.0527H11.0577Z" fill="black"/>
</svg>
