<svg width="20" height="20" viewBox="0 0 20 20" fill="none" xmlns="http://www.w3.org/2000/svg">
<path fill-rule="evenodd" clip-rule="evenodd" d="M0 9.11116C0 4.07922 4.07922 0 9.11116 0C14.1431 0 18.2223 4.07922 18.2223 9.11116C18.2223 11.2817 17.4633 13.2749 16.1963 14.84L19.7191 18.3628C20.0936 18.7373 20.0936 19.3446 19.7191 19.7191C19.3446 20.0936 18.7373 20.0936 18.3628 19.7191L14.84 16.1963C13.2749 17.4633 11.2817 18.2223 9.11116 18.2223C4.07922 18.2223 0 14.1431 0 9.11116ZM9.11116 1.91814C5.13858 1.91814 1.91814 5.13858 1.91814 9.11116C1.91814 13.0837 5.13858 16.3042 9.11116 16.3042C13.0837 16.3042 16.3042 13.0837 16.3042 9.11116C16.3042 5.13858 13.0837 1.91814 9.11116 1.91814ZM5.72034 5.24076C6.58711 4.37405 7.78725 3.83628 9.11116 3.83628C10.4351 3.83628 11.6352 4.37404 12.502 5.24078C12.8765 5.61532 12.8765 6.22257 12.502 6.59711C12.1274 6.97165 11.5202 6.97165 11.1456 6.59711C10.6239 6.0754 9.90593 5.75442 9.11116 5.75442C8.31639 5.75442 7.59839 6.0754 7.07662 6.59713C6.70207 6.97166 6.09482 6.97164 5.72029 6.59708C5.34576 6.22253 5.34579 5.61528 5.72034 5.24076Z" fill="black"/>
</svg>
