<svg width="27" height="16" viewBox="0 0 27 16" fill="none" xmlns="http://www.w3.org/2000/svg">
<path d="M3.66735 13V0.636363H11.9983V2.79155H6.28134V5.73757H11.5697V7.89276H6.28134V10.8448H12.0225V13H3.66735ZM13.3038 15.7166V10.9595H14.0162C14.2214 10.8307 14.3864 10.6255 14.5112 10.3438C14.64 10.062 14.7446 9.73 14.8251 9.34766C14.9096 8.96532 14.974 8.55279 15.0183 8.11008C15.0666 7.66335 15.1088 7.21259 15.1451 6.75781L15.3865 3.72727H22.498V10.9595H23.9348V15.7166H21.4838V13H15.8152V15.7166H13.3038ZM16.5758 10.9595H20.0712V5.70739H17.5719L17.4753 6.75781C17.4069 7.74787 17.3083 8.58901 17.1795 9.28125C17.0507 9.96946 16.8495 10.5289 16.5758 10.9595Z" fill="black"/>
</svg>
